<?xml version="1.0" encoding="UTF-8" standalone="no"?>
<!-- Created with Inkscape (http://www.inkscape.org/) -->

<svg
   width="1.7843182in"
   height="2.1620262in"
   viewBox="0 0 45.321683 54.915464"
   version="1.1"
   id="svg1"
   xmlns="http://www.w3.org/2000/svg"
   xmlns:svg="http://www.w3.org/2000/svg">
  <defs
     id="defs1" />
  <path
     style="fill:#4d4d4d;fill-opacity:0.999999;stroke:#000000;stroke-width:0"
     d="M 10.959589,54.568044 C 10.300357,52.077445 -0.21517665,9.8251444 -0.18203315,9.8000635 -0.15755767,9.7815421 8.6916819,7.555277 19.482944,4.852808 c 10.791262,-2.702469 19.678595,-4.93489082 19.74963,-4.96093744 0.08311,-0.0304733 1.216518,4.30243234 3.179041,12.15313744 1.67744,6.710273 3.029902,12.216974 3.005479,12.237116 -0.02442,0.02014 -3.975762,1.017447 -8.780746,2.216234 -4.804985,1.198787 -8.736336,2.22562 -8.736336,2.281849 0,0.05623 1.156677,4.728739 2.57039,10.383353 1.463617,5.854211 2.525903,10.321119 2.467071,10.374017 -0.09601,0.08633 -21.503037,5.465831 -21.750561,5.465831 -0.06165,0 -0.163943,-0.195913 -0.227323,-0.435364 z m 16.985212,-8.342122 c -0.04816,-0.377592 -4.040658,-16.259919 -4.105888,-16.333391 -0.04486,-0.05053 -3.042974,0.648565 -6.662479,1.553536 -5.573045,1.393407 -6.572268,1.674182 -6.524426,1.833329 0.03107,0.10336 0.948176,3.766632 2.038012,8.140608 1.089835,4.373973 2.002394,8.012475 2.027909,8.085566 0.0548,0.156988 13.247959,-3.114302 13.226872,-3.279648 z M 16.580506,27.533263 c 3.51195,-0.874141 6.405325,-1.605765 6.429726,-1.625826 0.05313,-0.04368 -4.058839,-16.5303417 -4.122863,-16.5303417 -0.02445,0 -2.995903,0.7379367 -6.60322,1.6398607 -4.7260474,1.181634 -6.558758,1.684846 -6.558758,1.800852 0,0.126456 3.4637854,14.110276 3.9588552,15.982491 0.08869,0.335402 0.1639716,0.426995 0.3137908,0.381791 0.108409,-0.03271 3.07052,-0.774684 6.582469,-1.648827 z m 17.334541,-4.21543 c 3.531757,-0.885326 6.440808,-1.629116 6.464557,-1.652866 0.02376,-0.02375 -0.880303,-3.738627 -2.009008,-8.255281 -1.505577,-6.0247689 -2.095841,-8.2121005 -2.216081,-8.2121005 -0.164338,0 -13.030511,3.2280413 -13.085552,3.2830826 -0.01611,0.01611 0.894193,3.7247359 2.022898,8.2413909 1.587054,6.350804 2.09181,8.211348 2.226999,8.20878 0.09614,-0.0018 3.064428,-0.727679 6.596187,-1.613006 z"
     id="path1" />
  <path
     style="fill:#4d4d4d;fill-opacity:0.999999;stroke:#000000;stroke-width:0"
     d="M 6.2034322,35.294172 C 0.71802351,13.283923 -0.10250522,9.941905 -0.03708914,9.8764892 0.06264783,9.7767521 39.165931,-0.06183227 39.224153,-0.00183822 c 0.120039,0.12369376 5.668362,22.07053322 6.02992,23.85183122 0.09103,0.448489 1.009402,0.169295 -8.356505,2.540471 -3.958926,1.002286 -7.602934,1.927008 -8.0978,2.054936 -0.682906,0.176541 -0.899756,0.280676 -0.899756,0.432073 0,0.109709 0.856285,3.642767 1.902852,7.851243 2.010468,8.084519 3.121586,12.710478 3.065267,12.761728 -0.03816,0.03473 -6.873727,1.788546 -9.55397,2.451285 -0.957804,0.236834 -1.757029,0.468493 -1.776054,0.514795 -0.01902,0.0463 -0.136573,0.05752 -0.261219,0.02492 -0.124646,-0.0326 -0.226628,-0.0058 -0.226628,0.0595 0,0.06532 -0.104488,0.09145 -0.232195,0.05805 -0.127707,-0.0334 -0.232195,-0.0073 -0.232195,0.05805 0,0.06533 -0.104488,0.09145 -0.232195,0.05805 -0.127707,-0.03339 -0.232195,-0.0073 -0.232195,0.05805 0,0.06532 -0.104488,0.09145 -0.232195,0.05805 -0.127707,-0.0334 -0.232195,-0.0073 -0.232195,0.05805 0,0.06532 -0.104488,0.09145 -0.232195,0.05805 -0.127707,-0.0334 -0.232195,-0.0073 -0.232195,0.05805 0,0.06533 -0.104488,0.09145 -0.232195,0.05805 -0.127707,-0.0334 -0.232195,-0.0073 -0.232195,0.05805 0,0.06532 -0.104488,0.09145 -0.232195,0.05805 -0.127707,-0.0334 -0.232195,-0.0073 -0.232195,0.05805 0,0.06532 -0.104488,0.09145 -0.232195,0.05805 -0.127707,-0.03339 -0.232195,-0.0073 -0.232195,0.05805 0,0.06532 -0.104488,0.09145 -0.232195,0.05805 -0.127707,-0.0334 -0.232195,-0.0073 -0.232195,0.05805 0,0.06532 -0.104488,0.09145 -0.232195,0.05805 -0.127707,-0.0334 -0.232195,-0.0073 -0.232195,0.05805 0,0.06532 -0.104488,0.09145 -0.232195,0.05805 -0.127707,-0.0334 -0.232195,-0.0073 -0.232195,0.05805 0,0.06532 -0.104488,0.09145 -0.232195,0.05805 -0.127707,-0.0334 -0.232195,-0.0073 -0.232195,0.05805 0,0.06532 -0.104488,0.09145 -0.232195,0.05805 -0.127707,-0.0334 -0.232195,-0.0073 -0.232195,0.05805 0,0.06533 -0.104487,0.09145 -0.232195,0.05805 -0.127707,-0.0334 -0.232195,-0.0073 -0.232195,0.05805 0,0.06532 -0.104487,0.09145 -0.232195,0.05805 -0.127707,-0.03339 -0.232195,-0.0073 -0.232195,0.05805 0,0.06532 -0.104487,0.09145 -0.232195,0.05805 -0.127707,-0.0334 -0.232195,-0.0073 -0.232195,0.05805 0,0.06533 -0.104487,0.09145 -0.232195,0.05805 -0.127707,-0.0334 -0.232194,-0.0073 -0.232194,0.05805 0,0.06532 -0.104488,0.09145 -0.232196,0.05805 -0.127707,-0.0334 -0.232195,-0.0073 -0.232195,0.05805 0,0.06532 -0.104487,0.09145 -0.232194,0.05805 -0.127708,-0.0334 -0.232196,-0.0073 -0.232196,0.05805 0,0.06532 -0.104487,0.09145 -0.232195,0.05805 -0.127707,-0.0334 -0.23257,-0.01545 -0.233027,0.03989 -4.5e-4,0.05534 -0.257238,0.112916 -0.570622,0.12795 l -0.56979,0.02733 z m 9.5063428,14.071203 c 0.159634,-0.03545 0.446976,-0.09047 0.638536,-0.122245 0.568359,-0.09429 10.032342,-2.458072 10.884917,-2.718686 0.699254,-0.213744 0.778229,-0.267529 0.7273,-0.495285 -0.215943,-0.965681 -3.935022,-15.737157 -4.01552,-15.948888 -0.05554,-0.146071 -0.167952,-0.241969 -0.249814,-0.213108 -0.08186,0.02886 -0.279448,0.07743 -0.439082,0.107929 -0.159634,0.0305 -0.420853,0.08916 -0.580487,0.130357 -0.159634,0.0412 -0.380642,0.07332 -0.491129,0.07139 -0.110486,-0.0019 -0.229708,0.04312 -0.264936,0.100124 -0.03523,0.057 -0.135462,0.07624 -0.222738,0.04275 -0.08728,-0.03349 -0.191765,-0.0074 -0.232195,0.05805 -0.04043,0.06542 -0.144919,0.09154 -0.232195,0.05805 -0.08728,-0.03349 -0.191765,-0.0074 -0.232195,0.05805 -0.04043,0.06542 -0.144919,0.09154 -0.232195,0.05805 -0.08728,-0.03349 -0.190143,-0.01 -0.228594,0.05222 -0.03845,0.06221 -0.174342,0.0858 -0.301987,0.05242 -0.127643,-0.03338 -0.232079,-0.0073 -0.232079,0.05808 0,0.06532 -0.104487,0.09145 -0.232195,0.05805 -0.127707,-0.0334 -0.232195,-0.0073 -0.232195,0.05805 0,0.06532 -0.104487,0.09145 -0.232194,0.05805 -0.127708,-0.03339 -0.232196,-0.0073 -0.232196,0.05805 0,0.06532 -0.104487,0.09145 -0.232195,0.05805 -0.127707,-0.0334 -0.232194,-0.0073 -0.232194,0.05805 0,0.06533 -0.104488,0.09145 -0.232196,0.05805 -0.127707,-0.0334 -0.232194,-0.0073 -0.232194,0.05805 0,0.06532 -0.104488,0.09145 -0.232195,0.05805 -0.127708,-0.0334 -0.232195,-0.0073 -0.232195,0.05805 0,0.06532 -0.104488,0.09145 -0.232195,0.05805 -0.127708,-0.0334 -0.232195,-0.0073 -0.232195,0.05805 0,0.06533 -0.104488,0.09145 -0.232195,0.05805 -0.127707,-0.03339 -0.232195,-0.0073 -0.232195,0.05805 0,0.06532 -0.104488,0.09145 -0.232195,0.05805 -0.127708,-0.0334 -0.232195,-0.0073 -0.232195,0.05805 0,0.06532 -0.104488,0.09145 -0.232195,0.05805 -0.127708,-0.0334 -0.232195,-0.0073 -0.232195,0.05805 0,0.06532 -0.104488,0.09145 -0.232195,0.05805 -0.127707,-0.03339 -0.232195,-0.0073 -0.232195,0.05805 0,0.06532 -0.104488,0.09145 -0.232195,0.05805 -0.127707,-0.0334 -0.232195,-0.0073 -0.232195,0.05805 0,0.06532 -0.104488,0.09144 -0.232195,0.05805 -0.127708,-0.0334 -0.232195,-0.0073 -0.232195,0.05805 0,0.06532 -0.104488,0.09145 -0.232195,0.05805 -0.127707,-0.0334 -0.232195,-0.0073 -0.232195,0.05805 0,0.06532 -0.104488,0.09145 -0.232195,0.05805 -0.127707,-0.0334 -0.232195,-0.0073 -0.232195,0.05805 0,0.06533 -0.104488,0.09145 -0.232195,0.05805 -0.127707,-0.03339 -0.232195,-0.004 -0.232195,0.06527 0,0.0693 -0.07308,0.09795 -0.162403,0.06368 -0.08932,-0.03427 -0.195483,-0.0088 -0.235913,0.05662 -0.04043,0.06542 -0.144918,0.09154 -0.232194,0.05805 -0.08728,-0.03349 -0.193702,-0.0042 -0.2365,0.06501 -0.0428,0.06925 -0.126448,0.09585 -0.18589,0.05911 -0.05944,-0.03674 -0.17338,-0.02532 -0.253197,0.02535 -0.07982,0.05068 -0.171244,0.09871 -0.20317,0.10673 -0.03193,0.008 -0.228928,0.05475 -0.437782,0.103846 -0.208853,0.04909 -0.405763,0.131382 -0.437578,0.182859 -0.04325,0.06998 3.081828,12.818756 3.906944,15.938392 0.127822,0.48328 0.09482,0.476308 1.147925,0.242414 z m 0.379011,-21.650399 c 3.33542,-0.833133 6.253784,-1.564804 6.485253,-1.625932 0.342628,-0.09048 0.420854,-0.165379 0.420854,-0.402936 0,-0.160487 -0.04343,-0.318636 -0.09652,-0.351443 -0.05308,-0.03281 -0.06911,-0.131058 -0.03562,-0.218334 0.03349,-0.08728 0.0074,-0.191765 -0.05805,-0.232195 -0.06542,-0.04043 -0.09154,-0.144919 -0.05805,-0.232195 0.03349,-0.08728 0.0074,-0.191765 -0.05805,-0.232195 -0.06542,-0.04043 -0.09154,-0.144919 -0.05805,-0.232195 0.03349,-0.08728 0.01,-0.190143 -0.05222,-0.228594 -0.06221,-0.03845 -0.0858,-0.174342 -0.05242,-0.301987 0.03338,-0.127643 0.0072,-0.232078 -0.05808,-0.232078 -0.06532,0 -0.09145,-0.104488 -0.05805,-0.232196 0.0334,-0.127707 0.0073,-0.232194 -0.05805,-0.232194 -0.06532,0 -0.09145,-0.104488 -0.05805,-0.232195 0.0334,-0.127708 0.0073,-0.232195 -0.05805,-0.232195 -0.06532,0 -0.09145,-0.104488 -0.05805,-0.232195 0.0334,-0.127708 0.0073,-0.232195 -0.05805,-0.232195 -0.06532,0 -0.09145,-0.104488 -0.05805,-0.232195 0.0334,-0.127707 0.0073,-0.232195 -0.05805,-0.232195 -0.06532,0 -0.09145,-0.104488 -0.05805,-0.232195 0.0334,-0.127708 0.0073,-0.232195 -0.05805,-0.232195 -0.06532,0 -0.09145,-0.104488 -0.05805,-0.232195 0.0334,-0.127708 0.0073,-0.232195 -0.05805,-0.232195 -0.06532,0 -0.09145,-0.104488 -0.05805,-0.232195 0.0334,-0.127707 0.0073,-0.232195 -0.05805,-0.232195 -0.06532,0 -0.09145,-0.104488 -0.05805,-0.232195 0.0334,-0.127707 0.0073,-0.232195 -0.05805,-0.232195 -0.06532,0 -0.09145,-0.104488 -0.05805,-0.232195 0.0334,-0.127708 0.0073,-0.232195 -0.05805,-0.232195 -0.06532,0 -0.09144,-0.104488 -0.05805,-0.232195 0.0334,-0.127707 0.0073,-0.232195 -0.05805,-0.232195 -0.06532,0 -0.09145,-0.104488 -0.05805,-0.232195 0.03529,-0.134958 0.0036,-0.232195 -0.07577,-0.232195 -0.07507,0 -0.106924,-0.04784 -0.07079,-0.106308 0.08979,-0.145288 -0.304156,-1.751252 -0.429589,-1.751252 -0.05528,0 -0.06956,-0.05006 -0.03175,-0.111248 0.03782,-0.06119 -0.272301,-1.458709 -0.689147,-3.105608 C 18.940191,9.2455669 18.99361,9.4170114 18.757219,9.4083804 18.515853,9.3995671 7.9103504,12.046928 6.6541709,12.429559 5.9886147,12.632288 5.7759272,12.748448 5.751558,12.922524 c -0.030047,0.214633 3.8489079,15.980333 3.9865629,16.203065 0.035412,0.0573 0.1143085,0.104177 0.1753254,0.104177 0.061017,0 2.8399207,-0.681654 6.1753397,-1.51479 z m 17.874561,-4.355832 c 3.465576,-0.866258 6.347166,-1.620282 6.403536,-1.675609 0.05637,-0.05533 0.06119,-0.195534 0.01072,-0.31157 -0.05047,-0.116036 -0.08215,-0.27234 -0.07038,-0.347341 0.01177,-0.075 -0.02996,-0.168103 -0.09272,-0.20689 -0.06276,-0.03879 -0.0867,-0.141929 -0.05321,-0.229205 0.03349,-0.08728 0.0074,-0.191765 -0.05805,-0.232195 -0.06542,-0.04043 -0.09154,-0.144919 -0.05805,-0.232195 0.03349,-0.08728 0.0074,-0.191765 -0.05805,-0.232195 -0.06542,-0.04043 -0.09154,-0.144919 -0.05805,-0.232195 0.03349,-0.08728 0.01,-0.190143 -0.05222,-0.228594 -0.06221,-0.03845 -0.0858,-0.174342 -0.05242,-0.301987 0.03338,-0.127643 0.0072,-0.232079 -0.05808,-0.232079 -0.06532,0 -0.09145,-0.104487 -0.05805,-0.232195 0.0334,-0.127707 0.0073,-0.232194 -0.05805,-0.232194 -0.06532,0 -0.09145,-0.104488 -0.05805,-0.232196 0.0334,-0.127707 0.0073,-0.232195 -0.05805,-0.232195 -0.06532,0 -0.09145,-0.104487 -0.05805,-0.232194 0.0334,-0.127708 0.0073,-0.232196 -0.05805,-0.232196 -0.06533,0 -0.09145,-0.104487 -0.05805,-0.232195 0.0334,-0.127707 0.0073,-0.232194 -0.05805,-0.232194 -0.06532,0 -0.09145,-0.104488 -0.05805,-0.232196 0.0334,-0.127707 0.0073,-0.232194 -0.05805,-0.232194 -0.06532,0 -0.09145,-0.104488 -0.05805,-0.232195 0.0334,-0.127708 0.0073,-0.232195 -0.05805,-0.232195 -0.06533,0 -0.09145,-0.104488 -0.05805,-0.232195 0.03339,-0.127708 0.0073,-0.232195 -0.05805,-0.232195 -0.06532,0 -0.09145,-0.104488 -0.05805,-0.232195 0.0334,-0.127707 0.0073,-0.232195 -0.05805,-0.232195 -0.06532,0 -0.09145,-0.104488 -0.05805,-0.232195 0.0334,-0.127708 0.0073,-0.232195 -0.05805,-0.232195 -0.06532,0 -0.09145,-0.104488 -0.05805,-0.232195 0.0334,-0.127708 0.0073,-0.232195 -0.05805,-0.232195 -0.06532,0 -0.09145,-0.104488 -0.05805,-0.232195 0.0334,-0.127707 0.0073,-0.232195 -0.05805,-0.232195 -0.06532,0 -0.09145,-0.104488 -0.05805,-0.232195 0.03529,-0.134958 0.0036,-0.232195 -0.07577,-0.232195 -0.07507,0 -0.107117,-0.04753 -0.07121,-0.105618 0.09084,-0.146974 -0.184272,-1.287552 -0.310558,-1.287552 -0.05665,0 -0.07263,-0.04915 -0.0355,-0.109229 0.07967,-0.128909 -0.518449,-2.603131 -0.641493,-2.6536529 -0.04634,-0.019026 -0.05758,-0.1365737 -0.02498,-0.2612195 0.03396,-0.129867 0.0011,-0.2266283 -0.07723,-0.2266283 -0.07507,0 -0.109045,-0.044405 -0.0755,-0.098678 0.04742,-0.076722 -0.255018,-1.3254593 -0.552524,-2.2813209 -0.01987,-0.063854 -0.09919,-0.3381341 -0.176263,-0.6095119 -0.10251,-0.360957 -0.200088,-0.4934143 -0.363489,-0.4934143 -0.321168,0 -12.808957,3.1424359 -12.928523,3.2533419 -0.09973,0.092511 3.272593,13.8154869 3.824041,15.5611299 0.231722,0.733531 0.337179,0.922102 0.515678,0.922102 0.123412,0 3.059856,-0.708757 6.525432,-1.575015 z"
     id="path5" />
  <path
     style="fill:#000000;fill-opacity:1;stroke:#000000;stroke-width:0"
     d="M 11.393935,54.909473 11.083457,54.873585 6.0859893,34.824605 C -0.05798509,10.176043 -0.11614476,9.9358953 0.03564905,9.8420814 0.20474157,9.7375766 39.177568,-0.04940114 39.227158,1.8780958e-4 39.352312,0.12534326 45.000676,22.461548 45.243855,23.792946 l 0.07783,0.426103 -0.613034,0.174526 c -0.337169,0.09599 -3.64318,0.938621 -7.346691,1.872516 -8.2837,2.088859 -9.351685,2.379409 -9.422276,2.563363 -0.03072,0.08006 0.911244,4.055859 2.093249,8.835123 2.290188,9.26002 2.893234,11.773546 2.836611,11.823091 -0.04258,0.03726 -5.486572,1.44012 -8.793286,2.265935 -1.304895,0.325882 -2.428138,0.62748 -2.496096,0.670216 -0.06796,0.04273 -0.214985,0.06266 -0.326729,0.04427 -0.111743,-0.01839 -0.20317,0.01722 -0.20317,0.0791 0,0.06189 -0.104488,0.0852 -0.232195,0.05181 -0.127707,-0.0334 -0.232195,-0.0073 -0.232195,0.05805 0,0.06533 -0.104488,0.09145 -0.232195,0.05805 -0.127707,-0.03339 -0.232195,-0.0073 -0.232195,0.05805 0,0.06532 -0.104488,0.09145 -0.232195,0.05805 -0.127707,-0.0334 -0.232195,-0.0073 -0.232195,0.05805 0,0.06532 -0.104488,0.09145 -0.232195,0.05805 -0.127707,-0.0334 -0.232195,-0.0073 -0.232195,0.05805 0,0.06533 -0.104488,0.09145 -0.232195,0.05805 -0.127707,-0.0334 -0.232195,-0.0073 -0.232195,0.05805 0,0.06532 -0.104488,0.09145 -0.232195,0.05805 -0.127707,-0.0334 -0.232195,-0.0073 -0.232195,0.05805 0,0.06532 -0.104488,0.09145 -0.232195,0.05805 -0.127707,-0.03339 -0.232195,-0.0073 -0.232195,0.05805 0,0.06532 -0.104488,0.09145 -0.232195,0.05805 -0.127707,-0.0334 -0.232195,-0.0073 -0.232195,0.05805 0,0.06532 -0.104488,0.09145 -0.232195,0.05805 -0.127707,-0.0334 -0.232195,-0.0073 -0.232195,0.05805 0,0.06532 -0.104488,0.09145 -0.232195,0.05805 -0.127707,-0.0334 -0.232195,-0.0073 -0.232195,0.05805 0,0.06532 -0.104488,0.09145 -0.232195,0.05805 -0.127707,-0.0334 -0.232195,-0.0073 -0.232195,0.05805 0,0.06532 -0.104488,0.09145 -0.232195,0.05805 -0.127707,-0.0334 -0.232195,-0.0073 -0.232195,0.05805 0,0.06533 -0.104487,0.09145 -0.232195,0.05805 -0.127707,-0.0334 -0.232195,-0.0073 -0.232195,0.05805 0,0.06532 -0.104487,0.09145 -0.232195,0.05805 -0.127707,-0.03339 -0.232195,-0.0073 -0.232195,0.05805 0,0.06532 -0.104487,0.09145 -0.232195,0.05805 -0.127707,-0.0334 -0.232195,-0.0073 -0.232195,0.05805 0,0.06533 -0.104487,0.09145 -0.232195,0.05805 -0.127707,-0.0334 -0.232194,-0.0073 -0.232194,0.05805 0,0.06532 -0.104488,0.09145 -0.232196,0.05805 -0.127707,-0.0334 -0.232195,-0.0073 -0.232195,0.05805 0,0.06532 -0.104487,0.09145 -0.232194,0.05805 -0.127708,-0.0334 -0.232196,-0.0073 -0.232196,0.05805 0,0.06532 -0.104487,0.09145 -0.232195,0.05805 -0.127707,-0.0334 -0.232194,-0.004 -0.232194,0.06528 0,0.0693 -0.08364,0.0939 -0.185863,0.05467 -0.102225,-0.03923 -0.219774,-0.02453 -0.26122,0.03267 -0.04145,0.0572 -0.215071,0.08784 -0.385833,0.0681 z m 3.967548,-5.474682 c 0.223487,-0.06091 0.589194,-0.141152 0.812682,-0.178321 1.163742,-0.19354 9.5359,-2.274403 11.056576,-2.748063 0.686104,-0.213706 0.774904,-0.273664 0.724485,-0.489154 -0.548675,-2.344922 -3.916744,-15.681846 -4.054819,-16.056324 -0.03594,-0.09746 -0.162634,-0.107411 -0.434582,-0.03412 -0.595671,0.160534 -1.061406,0.250436 -1.281329,0.247344 -0.110486,-0.0016 -0.229708,0.04381 -0.264936,0.100811 -0.03523,0.057 -0.135462,0.07624 -0.222738,0.04275 -0.08728,-0.03349 -0.191765,-0.0074 -0.232195,0.05805 -0.04043,0.06542 -0.144919,0.09154 -0.232195,0.05805 -0.08728,-0.03349 -0.191765,-0.0074 -0.232195,0.05805 -0.04043,0.06542 -0.144919,0.09154 -0.232195,0.05805 -0.08728,-0.03349 -0.190143,-0.01 -0.228594,0.05222 -0.03845,0.06221 -0.174342,0.0858 -0.301987,0.05242 -0.127643,-0.03338 -0.232079,-0.0073 -0.232079,0.05808 0,0.06532 -0.104487,0.09145 -0.232195,0.05805 -0.127707,-0.0334 -0.232195,-0.0073 -0.232195,0.05805 0,0.06532 -0.104487,0.09145 -0.232194,0.05805 -0.127708,-0.03339 -0.232196,-0.0073 -0.232196,0.05805 0,0.06532 -0.104487,0.09145 -0.232195,0.05805 -0.127707,-0.0334 -0.232194,-0.0073 -0.232194,0.05805 0,0.06533 -0.104488,0.09145 -0.232196,0.05805 -0.127707,-0.0334 -0.232194,-0.0073 -0.232194,0.05805 0,0.06532 -0.104488,0.09145 -0.232195,0.05805 -0.127708,-0.0334 -0.232195,-0.0073 -0.232195,0.05805 0,0.06532 -0.104488,0.09145 -0.232195,0.05805 -0.127708,-0.0334 -0.232195,-0.0073 -0.232195,0.05805 0,0.06533 -0.104488,0.09145 -0.232195,0.05805 -0.127707,-0.03339 -0.232195,-0.0073 -0.232195,0.05805 0,0.06532 -0.104488,0.09145 -0.232195,0.05805 -0.127708,-0.0334 -0.232195,-0.0073 -0.232195,0.05805 0,0.06532 -0.104488,0.09145 -0.232195,0.05805 -0.127708,-0.0334 -0.232195,-0.0073 -0.232195,0.05805 0,0.06532 -0.104488,0.09145 -0.232195,0.05805 -0.127707,-0.03339 -0.232195,-0.0073 -0.232195,0.05805 0,0.06532 -0.104488,0.09145 -0.232195,0.05805 -0.127707,-0.0334 -0.232195,-0.0073 -0.232195,0.05805 0,0.06532 -0.104488,0.09144 -0.232195,0.05805 -0.127708,-0.0334 -0.232195,-0.0073 -0.232195,0.05805 0,0.06532 -0.104488,0.09145 -0.232195,0.05805 -0.127707,-0.0334 -0.232195,-0.0073 -0.232195,0.05805 0,0.06532 -0.104488,0.09145 -0.232195,0.05805 -0.127707,-0.0334 -0.232195,-0.0073 -0.232195,0.05805 0,0.06533 -0.104488,0.09145 -0.232195,0.05805 -0.127707,-0.03339 -0.232195,-0.004 -0.232195,0.06527 0,0.0693 -0.07308,0.09795 -0.162403,0.06368 -0.08932,-0.03427 -0.195483,-0.0088 -0.235913,0.05662 -0.04043,0.06542 -0.144918,0.09154 -0.232194,0.05805 -0.08728,-0.03349 -0.193702,-0.0042 -0.2365,0.06501 -0.0428,0.06925 -0.126448,0.09585 -0.18589,0.05911 -0.05944,-0.03674 -0.17338,-0.02532 -0.253197,0.02535 -0.07982,0.05068 -0.171244,0.09871 -0.20317,0.10673 -0.03193,0.008 -0.228928,0.05475 -0.437782,0.103846 -0.208853,0.04909 -0.405216,0.130498 -0.436363,0.180893 -0.04241,0.06862 3.130295,13.019623 3.90221,15.928857 0.124338,0.468614 0.183167,0.492297 0.803152,0.323331 z M 16.262871,27.66425 c 3.431234,-0.861034 6.349626,-1.596833 6.485315,-1.635111 0.248347,-0.07006 0.355894,-0.567344 0.150191,-0.694474 -0.05308,-0.03281 -0.06911,-0.131058 -0.03562,-0.218334 0.03349,-0.08728 0.0074,-0.191765 -0.05805,-0.232195 -0.06542,-0.04043 -0.09154,-0.144919 -0.05805,-0.232195 0.03349,-0.08728 0.0074,-0.191765 -0.05805,-0.232195 -0.06542,-0.04043 -0.09154,-0.144919 -0.05805,-0.232195 0.03349,-0.08728 0.0074,-0.191765 -0.05805,-0.232195 -0.06542,-0.04043 -0.09154,-0.144919 -0.05805,-0.232195 0.03349,-0.08728 0.0074,-0.191765 -0.05805,-0.232195 -0.06542,-0.04043 -0.09154,-0.144919 -0.05805,-0.232195 0.03349,-0.08728 0.0074,-0.191765 -0.05805,-0.232195 -0.06542,-0.04043 -0.09154,-0.144918 -0.05805,-0.232195 0.03349,-0.08728 0.01,-0.190143 -0.05222,-0.228593 -0.06221,-0.03845 -0.0858,-0.174343 -0.05242,-0.301988 0.03338,-0.127643 0.0072,-0.232078 -0.05808,-0.232078 -0.06532,0 -0.09145,-0.104488 -0.05805,-0.232195 0.0334,-0.127707 0.0073,-0.232195 -0.05805,-0.232195 -0.06532,0 -0.09145,-0.104488 -0.05805,-0.232195 0.0334,-0.127708 0.0073,-0.232195 -0.05805,-0.232195 -0.06532,0 -0.09145,-0.104488 -0.05805,-0.232195 0.0334,-0.127708 0.0073,-0.232195 -0.05805,-0.232195 -0.06532,0 -0.09145,-0.104488 -0.05805,-0.232195 0.0334,-0.127707 0.0073,-0.232195 -0.05805,-0.232195 -0.06532,0 -0.09145,-0.104488 -0.05805,-0.232195 0.0334,-0.127707 0.0073,-0.232195 -0.05805,-0.232195 -0.06532,0 -0.09145,-0.104488 -0.05805,-0.232195 0.0334,-0.127708 0.0073,-0.232195 -0.05805,-0.232195 -0.06532,0 -0.09144,-0.104488 -0.05805,-0.232195 0.0334,-0.127707 0.0073,-0.232195 -0.05805,-0.232195 -0.06532,0 -0.09145,-0.104488 -0.05805,-0.232195 0.03529,-0.134958 0.0036,-0.232195 -0.07577,-0.232195 -0.07507,0 -0.106924,-0.04784 -0.07079,-0.106308 0.08979,-0.145288 -0.304156,-1.751252 -0.429589,-1.751252 -0.05528,0 -0.06992,-0.04948 -0.03254,-0.109961 0.0518,-0.08382 -1.300671,-5.694095 -1.629506,-6.7594589 C 18.96523,9.4425701 18.851774,9.4080899 18.540378,9.4467124 18.006226,9.5129641 7.3889196,12.192685 6.4800248,12.490646 c -0.6892349,0.225951 -0.6963175,0.232762 -0.6712265,0.645483 0.025289,0.415954 3.7989082,15.778444 3.9265109,15.984909 0.036959,0.0598 0.1170927,0.108728 0.1780757,0.108728 0.060983,0 2.9182521,-0.704483 6.3494861,-1.565516 z m 17.790307,-4.331237 c 5.834208,-1.467502 6.324476,-1.609631 6.290895,-1.82373 -0.02003,-0.127707 -0.03642,-0.322593 -0.03641,-0.43308 6e-6,-0.110486 -0.04663,-0.229708 -0.103632,-0.264937 -0.057,-0.03523 -0.07624,-0.135461 -0.04275,-0.222737 0.03349,-0.08728 0.0074,-0.191765 -0.05805,-0.232195 -0.06542,-0.04043 -0.09154,-0.144919 -0.05805,-0.232195 0.03349,-0.08728 0.0074,-0.191765 -0.05805,-0.232195 -0.06542,-0.04043 -0.09154,-0.144919 -0.05805,-0.232195 0.03349,-0.08728 0.0074,-0.191765 -0.05805,-0.232195 -0.06542,-0.04043 -0.09154,-0.144919 -0.05805,-0.232195 0.03349,-0.08728 0.0074,-0.191765 -0.05805,-0.232195 -0.06542,-0.04043 -0.09154,-0.144919 -0.05805,-0.232195 0.03349,-0.08728 0.01,-0.190143 -0.05222,-0.228594 -0.06221,-0.03845 -0.0858,-0.174342 -0.05242,-0.301987 0.03338,-0.127643 0.0072,-0.232079 -0.05808,-0.232079 -0.06532,0 -0.09145,-0.104487 -0.05805,-0.232194 0.0334,-0.127708 0.0073,-0.232196 -0.05805,-0.232196 -0.06533,0 -0.09145,-0.104487 -0.05805,-0.232195 0.0334,-0.127707 0.0073,-0.232194 -0.05805,-0.232194 -0.06532,0 -0.09145,-0.104488 -0.05805,-0.232196 0.0334,-0.127707 0.0073,-0.232194 -0.05805,-0.232194 -0.06532,0 -0.09145,-0.104488 -0.05805,-0.232195 0.0334,-0.127708 0.0073,-0.232195 -0.05805,-0.232195 -0.06533,0 -0.09145,-0.104488 -0.05805,-0.232195 0.0334,-0.127708 0.0073,-0.232195 -0.05805,-0.232195 -0.06532,0 -0.09145,-0.104488 -0.05805,-0.232195 0.0334,-0.127707 0.0073,-0.232195 -0.05805,-0.232195 -0.06532,0 -0.09145,-0.104488 -0.05805,-0.232195 0.0334,-0.127708 0.0073,-0.232195 -0.05805,-0.232195 -0.06532,0 -0.09145,-0.104488 -0.05805,-0.232195 0.0334,-0.127708 0.0073,-0.232195 -0.05805,-0.232195 -0.06532,0 -0.09145,-0.104488 -0.05805,-0.232195 0.0334,-0.127707 0.0073,-0.232195 -0.05805,-0.232195 -0.06532,0 -0.09145,-0.104488 -0.05805,-0.232195 0.03529,-0.134958 0.0036,-0.232195 -0.07577,-0.232195 -0.07507,0 -0.107116,-0.04753 -0.07121,-0.105618 0.09084,-0.146974 -0.184272,-1.287552 -0.310557,-1.287552 -0.05665,0 -0.07226,-0.04975 -0.03468,-0.110559 0.07941,-0.128491 -0.486013,-2.4380782 -0.643271,-2.6275622 -0.05826,-0.070197 -0.07502,-0.1585317 -0.03726,-0.1962983 0.03777,-0.037767 0.02752,-0.1352378 -0.02275,-0.216602 C 37.185453,8.6988544 37.132865,8.5255859 37.118876,8.3951775 37.084245,8.072324 36.740371,6.759748 36.607207,6.4421244 36.547784,6.3003839 36.44312,5.9623776 36.374625,5.6909998 36.283857,5.3313718 36.191372,5.1975855 36.033534,5.1975855 c -0.214992,0 -11.909576,2.9131906 -12.632248,3.1467682 -0.303052,0.09795 -0.36658,0.1715612 -0.322922,0.3741698 0.25833,1.198861 3.607983,14.5185295 3.837065,15.2578315 0.255839,0.825652 0.332224,0.957141 0.553617,0.952999 0.141255,-0.0026 3.104118,-0.720997 6.58414,-1.596341 z"
     id="path7" />
</svg>
