<?xml version="1.0" encoding="UTF-8" standalone="no"?>
<!-- Created with Inkscape (http://www.inkscape.org/) -->

<svg
   width="1.8054808in"
   height="2.1784055in"
   viewBox="0 0 45.859214 55.3315"
   version="1.1"
   id="svg1"
   sodipodi:docname="white_planeLogo.svg"
   inkscape:version="1.4.2 (ebf0e940, 2025-05-08)"
   inkscape:export-filename="white_planeLogo.svg"
   inkscape:export-xdpi="96"
   inkscape:export-ydpi="96"
   xmlns:inkscape="http://www.inkscape.org/namespaces/inkscape"
   xmlns:sodipodi="http://sodipodi.sourceforge.net/DTD/sodipodi-0.dtd"
   xmlns="http://www.w3.org/2000/svg"
   xmlns:svg="http://www.w3.org/2000/svg">
  <sodipodi:namedview
     id="namedview1"
     pagecolor="#ffffff"
     bordercolor="#000000"
     borderopacity="0.25"
     inkscape:showpageshadow="2"
     inkscape:pageopacity="0.0"
     inkscape:pagecheckerboard="0"
     inkscape:deskcolor="#d1d1d1"
     inkscape:document-units="in"
     inkscape:zoom="2.2789755"
     inkscape:cx="101.36134"
     inkscape:cy="109.47902"
     inkscape:window-width="1472"
     inkscape:window-height="806"
     inkscape:window-x="0"
     inkscape:window-y="37"
     inkscape:window-maximized="0"
     inkscape:current-layer="svg1" />
  <defs
     id="defs1" />
  <g
     id="layer1"
     transform="translate(-10.496501,-48.045874)" />
  <path
     style="fill:#4d4d4d;fill-opacity:0.999999;stroke:#000000;stroke-width:0"
     d="M 42.600065,207.00091 C 40.108479,197.58762 0.36473147,37.893891 0.48999824,37.799097 0.58250397,37.729095 34.028448,29.314865 74.814318,19.100809 115.60019,8.8867532 149.19011,0.44925366 149.45859,0.35080974 149.7727,0.23563496 154.05645,16.611971 161.47386,46.283928 c 6.33993,25.361659 11.4516,46.174388 11.35929,46.250515 -0.0923,0.07613 -15.0265,3.845469 -33.18707,8.376317 -18.16057,4.53085 -33.01922,8.41179 -33.01922,8.62431 0,0.21252 4.37169,17.8724 9.71486,39.24417 5.53178,22.12615 9.54672,39.00895 9.32436,39.20888 -0.36287,0.32628 -81.271316,20.65826 -82.206842,20.65826 -0.232999,0 -0.619627,-0.74046 -0.859173,-1.64547 z m 64.196075,-31.52928 c -0.18202,-1.42712 -15.271778,-61.45481 -15.518315,-61.7325 -0.169545,-0.19096 -11.501005,2.45127 -25.181025,5.87163 -21.063477,5.26642 -24.840066,6.32762 -24.659247,6.92912 0.117435,0.39065 3.583659,14.23609 7.702725,30.76765 4.119061,16.53155 7.568102,30.28337 7.664536,30.55962 0.207132,0.59334 50.071026,-11.77059 49.991326,-12.39552 z M 63.844477,104.82221 c 13.273508,-3.30384 24.209101,-6.06903 24.301323,-6.144854 0.2008,-0.1651 -15.340494,-62.476879 -15.582471,-62.476879 -0.09243,0 -11.323101,2.789054 -24.957052,6.197898 -17.862227,4.46602 -24.789007,6.367923 -24.789007,6.80637 0,0.477943 13.091472,53.330175 14.962602,60.406265 0.335206,1.26766 0.619735,1.61384 1.185981,1.44299 0.409735,-0.12363 11.605116,-2.92794 24.878624,-6.23179 z M 129.36085,88.88988 c 13.34837,-3.346114 24.34321,-6.157289 24.43297,-6.247053 0.0898,-0.08976 -3.32713,-14.130244 -7.5931,-31.201063 -5.69037,-22.770779 -7.92129,-31.037859 -8.37574,-31.037859 -0.62112,0 -49.249176,12.200471 -49.457203,12.408501 -0.06089,0.06089 3.379628,14.077742 7.645597,31.148562 5.998316,24.003039 7.906056,31.035015 8.417006,31.025309 0.36338,-0.0069 11.58209,-2.75028 24.93047,-6.096397 z"
     id="path1"
     transform="scale(0.26458334)" />
  <path
     style="fill:#4d4d4d;fill-opacity:0.999999;stroke:#000000;stroke-width:0"
     d="M 24.62404,134.15478 C 3.8917871,50.96644 0.79057624,38.335191 1.0378181,38.08795 1.4147767,37.710991 149.20671,0.52579115 149.42676,0.75254033 149.88045,1.2200443 170.85049,84.168728 172.21701,90.901191 c 0.34406,1.695078 3.81506,0.639854 -31.58364,9.601779 -14.96287,3.78817 -28.7355,7.28318 -30.60586,7.76669 -2.58106,0.66724 -3.40065,1.06082 -3.40065,1.63303 0,0.41465 3.23635,13.76794 7.19188,29.67399 7.59862,30.55566 11.79812,48.0396 11.58526,48.2333 -0.14424,0.13126 -25.979439,6.75986 -36.109491,9.2647 -3.620048,0.89512 -6.640739,1.77068 -6.712644,1.94568 -0.0719,0.17501 -0.516183,0.2174 -0.987285,0.0942 -0.471102,-0.1232 -0.856548,-0.022 -0.856548,0.2249 0,0.24689 -0.394914,0.34562 -0.877587,0.2194 -0.482673,-0.12623 -0.877587,-0.0275 -0.877587,0.21939 0,0.2469 -0.394914,0.34562 -0.877587,0.2194 -0.482673,-0.12622 -0.877588,-0.0275 -0.877588,0.2194 0,0.24689 -0.394914,0.34562 -0.877587,0.21939 -0.482673,-0.12622 -0.877587,-0.0275 -0.877587,0.2194 0,0.24689 -0.394915,0.34562 -0.877588,0.2194 -0.482673,-0.12623 -0.877587,-0.0275 -0.877587,0.21939 0,0.2469 -0.394914,0.34562 -0.877587,0.2194 -0.482673,-0.12622 -0.877588,-0.0275 -0.877588,0.2194 0,0.24689 -0.394914,0.34562 -0.877587,0.21939 -0.482673,-0.12622 -0.877587,-0.0275 -0.877587,0.2194 0,0.24689 -0.394915,0.34562 -0.877588,0.2194 -0.482673,-0.12622 -0.877587,-0.0275 -0.877587,0.2194 0,0.24689 -0.394914,0.34562 -0.877587,0.21939 -0.482673,-0.12622 -0.877587,-0.0275 -0.877587,0.2194 0,0.24689 -0.394915,0.34562 -0.877588,0.2194 -0.482673,-0.12623 -0.877587,-0.0275 -0.877587,0.21939 0,0.24689 -0.394914,0.34562 -0.877587,0.2194 -0.482673,-0.12622 -0.877588,-0.0275 -0.877588,0.2194 0,0.24689 -0.394914,0.34562 -0.877587,0.21939 -0.482673,-0.12622 -0.877587,-0.0275 -0.877587,0.2194 0,0.24689 -0.394915,0.34562 -0.877588,0.2194 -0.482673,-0.12623 -0.877587,-0.0275 -0.877587,0.21939 0,0.2469 -0.394914,0.34562 -0.877587,0.2194 -0.482673,-0.12622 -0.877588,-0.0275 -0.877588,0.2194 0,0.24689 -0.394914,0.34562 -0.877587,0.21939 -0.482673,-0.12622 -0.877587,-0.0275 -0.877587,0.2194 0,0.24689 -0.394914,0.34562 -0.877587,0.2194 -0.482674,-0.12623 -0.877588,-0.0275 -0.877588,0.21939 0,0.2469 -0.394914,0.34562 -0.877587,0.2194 -0.482673,-0.12622 -0.877587,-0.0275 -0.877587,0.2194 0,0.24689 -0.394915,0.34562 -0.877588,0.2194 -0.482673,-0.12623 -0.877587,-0.0275 -0.877587,0.21939 0,0.24689 -0.394914,0.34562 -0.877587,0.2194 -0.482673,-0.12622 -0.877588,-0.0275 -0.877588,0.2194 0,0.24689 -0.394914,0.34562 -0.877587,0.21939 -0.482673,-0.12622 -0.879005,-0.0584 -0.880733,0.15078 -0.0017,0.20915 -0.97224,0.42677 -2.156684,0.48359 l -2.153534,0.10331 z m 35.929484,53.1825 c 0.603342,-0.134 1.689356,-0.34192 2.413365,-0.46203 2.148128,-0.35637 37.917511,-9.29035 41.139841,-10.27535 2.64285,-0.80785 2.94134,-1.01113 2.74885,-1.87194 -0.81616,-3.64982 -14.872521,-59.47902 -15.176767,-60.27926 -0.209902,-0.55208 -0.634781,-0.91453 -0.944179,-0.80545 -0.309393,0.10908 -1.056181,0.29265 -1.659522,0.40792 -0.603341,0.11527 -1.590627,0.33698 -2.193968,0.49269 -0.603342,0.1557 -1.438647,0.27712 -1.856234,0.26981 -0.417586,-0.007 -0.868188,0.16298 -1.001335,0.37842 -0.133152,0.21544 -0.51198,0.28815 -0.841844,0.16156 -0.329867,-0.12658 -0.724781,-0.0279 -0.877587,0.2194 -0.15281,0.24725 -0.547724,0.34598 -0.877587,0.2194 -0.329868,-0.12658 -0.724782,-0.0279 -0.877588,0.21939 -0.152809,0.24725 -0.547724,0.34598 -0.877587,0.2194 -0.329867,-0.12658 -0.718652,-0.0378 -0.863976,0.19737 -0.145319,0.23513 -0.658932,0.32429 -1.141368,0.19813 -0.482432,-0.12616 -0.877148,-0.0274 -0.877148,0.21951 0,0.24689 -0.394915,0.34562 -0.877588,0.2194 -0.482673,-0.12622 -0.877587,-0.0275 -0.877587,0.2194 0,0.24689 -0.394914,0.34562 -0.877587,0.21939 -0.482673,-0.12622 -0.877588,-0.0275 -0.877588,0.2194 0,0.24689 -0.394914,0.34562 -0.877587,0.2194 -0.482673,-0.12623 -0.877587,-0.0275 -0.877587,0.21939 0,0.2469 -0.394915,0.34562 -0.877588,0.2194 -0.482673,-0.12622 -0.877587,-0.0275 -0.877587,0.2194 0,0.24689 -0.394914,0.34562 -0.877587,0.21939 -0.482673,-0.12622 -0.877587,-0.0275 -0.877587,0.2194 0,0.24689 -0.394915,0.34562 -0.877588,0.2194 -0.482673,-0.12623 -0.877587,-0.0275 -0.877587,0.21939 0,0.2469 -0.394914,0.34562 -0.877587,0.2194 -0.482673,-0.12622 -0.877588,-0.0275 -0.877588,0.2194 0,0.24689 -0.394914,0.34562 -0.877587,0.2194 -0.482673,-0.12623 -0.877587,-0.0275 -0.877587,0.21939 0,0.24689 -0.394915,0.34562 -0.877588,0.2194 -0.482673,-0.12622 -0.877587,-0.0275 -0.877587,0.2194 0,0.24689 -0.394914,0.34562 -0.877587,0.21939 -0.482673,-0.12622 -0.877588,-0.0275 -0.877588,0.2194 0,0.24689 -0.394914,0.34562 -0.877587,0.2194 -0.482673,-0.12623 -0.877587,-0.0275 -0.877587,0.21939 0,0.24689 -0.394914,0.34562 -0.877588,0.2194 -0.482673,-0.12622 -0.877587,-0.0275 -0.877587,0.2194 0,0.24689 -0.394914,0.34562 -0.877587,0.21939 -0.482673,-0.12622 -0.877587,-0.0275 -0.877587,0.2194 0,0.24689 -0.394915,0.34562 -0.877588,0.2194 -0.482673,-0.12623 -0.877587,-0.0275 -0.877587,0.21939 0,0.2469 -0.394914,0.34562 -0.877587,0.2194 -0.482673,-0.12622 -0.877588,-0.0152 -0.877588,0.2467 0,0.26192 -0.276212,0.37021 -0.613806,0.24066 -0.337595,-0.12954 -0.738832,-0.0332 -0.891638,0.21401 -0.15281,0.24725 -0.547724,0.34598 -0.877587,0.2194 -0.329868,-0.12658 -0.732101,-0.016 -0.893858,0.24572 -0.161752,0.26172 -0.477912,0.36226 -0.702574,0.22341 -0.224658,-0.13885 -0.655295,-0.0957 -0.956965,0.0958 -0.301671,0.19155 -0.647221,0.37308 -0.767889,0.40339 -0.120668,0.0303 -0.86524,0.20693 -1.654607,0.39249 -0.789366,0.18555 -1.533594,0.49656 -1.653839,0.69112 -0.163467,0.26449 11.647855,48.44884 14.766401,60.23959 0.483108,1.82657 0.358363,1.80022 4.338616,0.91621 z M 61.986006,105.509 c 12.606313,-3.14885 23.636348,-5.914218 24.511193,-6.145252 1.294972,-0.341987 1.590627,-0.625057 1.590627,-1.522908 0,-0.606566 -0.164152,-1.204295 -0.364782,-1.32829 -0.20063,-0.123998 -0.261214,-0.495336 -0.134631,-0.825199 0.126579,-0.329868 0.02785,-0.724782 -0.219397,-0.877588 -0.247251,-0.15281 -0.34598,-0.547724 -0.219396,-0.877587 0.126578,-0.329868 0.02785,-0.724782 -0.219397,-0.877587 -0.247252,-0.15281 -0.34598,-0.547725 -0.219397,-0.877588 0.126579,-0.329867 0.03777,-0.718652 -0.197369,-0.863976 -0.235132,-0.145319 -0.324291,-0.658932 -0.198133,-1.141368 0.126157,-0.482431 0.02738,-0.877148 -0.219511,-0.877148 -0.246892,0 -0.34562,-0.394915 -0.219397,-0.877588 0.126223,-0.482673 0.02749,-0.877587 -0.219397,-0.877587 -0.246892,0 -0.34562,-0.394914 -0.219397,-0.877587 0.126224,-0.482673 0.0275,-0.877587 -0.219397,-0.877587 -0.246891,0 -0.34562,-0.394915 -0.219396,-0.877588 0.126223,-0.482673 0.02749,-0.877587 -0.219397,-0.877587 -0.246892,0 -0.34562,-0.394914 -0.219397,-0.877587 0.126223,-0.482673 0.0275,-0.877588 -0.219397,-0.877588 -0.246892,0 -0.34562,-0.394914 -0.219397,-0.877587 0.126224,-0.482673 0.0275,-0.877587 -0.219397,-0.877587 -0.246891,0 -0.34562,-0.394915 -0.219396,-0.877588 0.126223,-0.482673 0.02749,-0.877587 -0.219397,-0.877587 -0.246892,0 -0.34562,-0.394914 -0.219397,-0.877587 0.126223,-0.482673 0.02749,-0.877588 -0.219397,-0.877588 -0.246891,0 -0.34562,-0.394914 -0.219397,-0.877587 0.126224,-0.482673 0.0275,-0.877587 -0.219397,-0.877587 -0.246891,0 -0.34562,-0.394914 -0.219396,-0.877587 0.126223,-0.482674 0.02749,-0.877588 -0.219397,-0.877588 -0.246892,0 -0.34562,-0.394914 -0.219397,-0.877587 0.126223,-0.482673 0.0275,-0.877587 -0.219397,-0.877587 -0.246891,0 -0.34562,-0.394915 -0.219397,-0.877588 0.133389,-0.510075 0.01346,-0.877587 -0.286374,-0.877587 -0.283724,0 -0.40412,-0.180809 -0.267541,-0.401795 0.339372,-0.549119 -1.149565,-6.618904 -1.623642,-6.618904 -0.208923,0 -0.262921,-0.189207 -0.119997,-0.420465 0.142924,-0.231253 -1.029169,-5.513231 -2.604648,-11.73773 C 72.762971,35.703362 72.964869,36.351341 72.071423,36.31872 71.159171,36.28541 31.075384,46.291182 26.327619,47.737349 c -2.515488,0.766217 -3.319346,1.205248 -3.41145,1.863175 -0.113564,0.811211 14.547053,60.398106 15.067324,61.239926 0.133841,0.21656 0.432032,0.39374 0.662647,0.39374 0.230615,0 10.733557,-2.57633 23.339866,-5.72519 z M 129.5434,89.046016 c 13.09824,-3.274046 23.98929,-6.123901 24.20234,-6.333013 0.21305,-0.209111 0.23127,-0.739025 0.0405,-1.177586 -0.19077,-0.438561 -0.31048,-1.029318 -0.26602,-1.312787 0.0445,-0.283474 -0.11323,-0.635347 -0.35043,-0.781944 -0.23719,-0.146596 -0.3277,-0.536425 -0.20111,-0.866288 0.12658,-0.329867 0.0279,-0.724782 -0.2194,-0.877587 -0.24725,-0.15281 -0.34598,-0.547724 -0.2194,-0.877588 0.12658,-0.329867 0.0279,-0.724781 -0.21939,-0.877587 -0.24725,-0.15281 -0.34598,-0.547724 -0.2194,-0.877587 0.12658,-0.329868 0.0378,-0.718652 -0.19737,-0.863976 -0.23513,-0.14532 -0.32429,-0.658932 -0.19813,-1.141368 0.12616,-0.482432 0.0274,-0.877149 -0.21951,-0.877149 -0.24689,0 -0.34562,-0.394914 -0.2194,-0.877587 0.12622,-0.482673 0.0275,-0.877587 -0.2194,-0.877587 -0.24689,0 -0.34562,-0.394915 -0.21939,-0.877588 0.12622,-0.482673 0.0275,-0.877587 -0.2194,-0.877587 -0.24689,0 -0.34562,-0.394914 -0.2194,-0.877587 0.12623,-0.482673 0.0275,-0.877588 -0.21939,-0.877588 -0.2469,0 -0.34562,-0.394914 -0.2194,-0.877587 0.12622,-0.482673 0.0275,-0.877587 -0.2194,-0.877587 -0.24689,0 -0.34562,-0.394915 -0.21939,-0.877588 0.12622,-0.482673 0.0275,-0.877587 -0.2194,-0.877587 -0.24689,0 -0.34562,-0.394914 -0.2194,-0.877587 0.12623,-0.482673 0.0275,-0.877587 -0.21939,-0.877587 -0.2469,0 -0.34562,-0.394915 -0.2194,-0.877588 0.12622,-0.482673 0.0275,-0.877587 -0.2194,-0.877587 -0.24689,0 -0.34562,-0.394914 -0.2194,-0.877587 0.12623,-0.482673 0.0275,-0.877588 -0.21939,-0.877588 -0.24689,0 -0.34562,-0.394914 -0.2194,-0.877587 0.12622,-0.482673 0.0275,-0.877587 -0.2194,-0.877587 -0.24689,0 -0.34562,-0.394915 -0.21939,-0.877588 0.12622,-0.482673 0.0275,-0.877587 -0.2194,-0.877587 -0.24689,0 -0.34562,-0.394914 -0.2194,-0.877587 0.12623,-0.482673 0.0275,-0.877588 -0.21939,-0.877588 -0.24689,0 -0.34562,-0.394914 -0.2194,-0.877587 0.13339,-0.510076 0.0135,-0.877587 -0.28637,-0.877587 -0.28373,0 -0.40485,-0.179634 -0.26916,-0.399184 0.34332,-0.555495 -0.69646,-4.86634 -1.17376,-4.86634 -0.21413,0 -0.27451,-0.185777 -0.13418,-0.412835 0.30111,-0.487214 -1.95949,-9.838604 -2.42454,-10.029553 -0.17513,-0.07191 -0.21762,-0.516184 -0.0944,-0.987286 0.12835,-0.490836 0.004,-0.856548 -0.29188,-0.856548 -0.28372,0 -0.41214,-0.16783 -0.28537,-0.372955 0.17922,-0.289973 -0.96385,-5.00961 -2.08828,-8.622315 -0.0751,-0.241337 -0.37489,-1.277987 -0.66619,-2.303667 -0.38744,-1.364247 -0.75624,-1.864873 -1.37382,-1.864873 -1.21386,0 -48.411805,11.876923 -48.863705,12.296095 -0.37695,0.349649 12.368855,52.216011 14.453065,58.813716 0.8758,2.7724 1.27438,3.48511 1.94902,3.48511 0.46644,0 11.56481,-2.678765 24.66305,-5.95281 z"
     id="path5"
     transform="scale(0.26458334)" />
  <path
     style="fill:#ffffff;fill-opacity:1;stroke:#000000;stroke-width:0"
     d="M 44.241686,208.29135 43.068229,208.15571 24.180161,132.38004 C 0.95884128,39.220122 0.73902522,38.312477 1.3127341,37.957905 1.9518239,37.562926 149.25069,0.57277494 149.43812,0.76019776 149.91114,1.2332262 171.25929,85.653526 172.17839,90.685581 l 0.29415,1.610469 -2.31698,0.659626 c -1.27434,0.36279 -13.7695,3.547541 -27.76702,7.077224 -31.30847,7.8949 -35.34495,8.99304 -35.61175,9.6883 -0.1161,0.30257 3.44407,15.32923 7.91149,33.39259 8.65583,34.9985 10.93506,44.49844 10.72105,44.6857 -0.16093,0.14083 -20.73665,5.44297 -33.234466,8.56416 -4.931887,1.23168 -9.177215,2.37158 -9.434063,2.5331 -0.256844,0.16151 -0.812541,0.23682 -1.23488,0.16734 -0.422338,-0.0695 -0.767889,0.0651 -0.767889,0.29896 0,0.23392 -0.394914,0.32203 -0.877587,0.19581 -0.482673,-0.12623 -0.877587,-0.0275 -0.877587,0.21939 0,0.2469 -0.394914,0.34562 -0.877587,0.2194 -0.482673,-0.12622 -0.877588,-0.0275 -0.877588,0.2194 0,0.24689 -0.394914,0.34562 -0.877587,0.21939 -0.482673,-0.12622 -0.877587,-0.0275 -0.877587,0.2194 0,0.24689 -0.394915,0.34562 -0.877588,0.2194 -0.482673,-0.12623 -0.877587,-0.0275 -0.877587,0.21939 0,0.2469 -0.394914,0.34562 -0.877587,0.2194 -0.482673,-0.12622 -0.877588,-0.0275 -0.877588,0.2194 0,0.24689 -0.394914,0.34562 -0.877587,0.21939 -0.482673,-0.12622 -0.877587,-0.0275 -0.877587,0.2194 0,0.24689 -0.394915,0.34562 -0.877588,0.2194 -0.482673,-0.12622 -0.877587,-0.0275 -0.877587,0.2194 0,0.24689 -0.394914,0.34562 -0.877587,0.21939 -0.482673,-0.12622 -0.877587,-0.0275 -0.877587,0.2194 0,0.24689 -0.394915,0.34562 -0.877588,0.2194 -0.482673,-0.12623 -0.877587,-0.0275 -0.877587,0.21939 0,0.24689 -0.394914,0.34562 -0.877587,0.2194 -0.482673,-0.12622 -0.877588,-0.0275 -0.877588,0.2194 0,0.24689 -0.394914,0.34562 -0.877587,0.21939 -0.482673,-0.12622 -0.877587,-0.0275 -0.877587,0.2194 0,0.24689 -0.394915,0.34562 -0.877588,0.2194 -0.482673,-0.12623 -0.877587,-0.0275 -0.877587,0.21939 0,0.2469 -0.394914,0.34562 -0.877587,0.2194 -0.482673,-0.12622 -0.877588,-0.0275 -0.877588,0.2194 0,0.24689 -0.394914,0.34562 -0.877587,0.21939 -0.482673,-0.12622 -0.877587,-0.0275 -0.877587,0.2194 0,0.24689 -0.394914,0.34562 -0.877587,0.2194 -0.482674,-0.12623 -0.877588,-0.0275 -0.877588,0.21939 0,0.2469 -0.394914,0.34562 -0.877587,0.2194 -0.482673,-0.12622 -0.877587,-0.0275 -0.877587,0.2194 0,0.24689 -0.394915,0.34562 -0.877588,0.2194 -0.482673,-0.12623 -0.877587,-0.0275 -0.877587,0.21939 0,0.24689 -0.394914,0.34562 -0.877587,0.2194 -0.482673,-0.12622 -0.877588,-0.0275 -0.877588,0.2194 0,0.24689 -0.394914,0.34562 -0.877587,0.21939 -0.482673,-0.12622 -0.877587,-0.0152 -0.877587,0.24671 0,0.26191 -0.316116,0.35489 -0.702474,0.20663 -0.386362,-0.14826 -0.830641,-0.0927 -0.987286,0.12347 -0.156649,0.21617 -0.812869,0.332 -1.458269,0.2574 z m 14.995457,-20.69171 c 0.844678,-0.23021 2.226878,-0.53349 3.071556,-0.67397 4.398393,-0.73149 36.041194,-8.59617 41.788631,-10.38638 2.59315,-0.80771 2.92877,-1.03432 2.73821,-1.84877 -2.07373,-8.8627 -14.803441,-59.26997 -15.325299,-60.68532 -0.13582,-0.36837 -0.614679,-0.40596 -1.642514,-0.12897 -2.251354,0.60674 -4.011614,0.94653 -4.842817,0.93484 -0.417586,-0.006 -0.868188,0.16558 -1.001335,0.38102 -0.133152,0.21544 -0.51198,0.28815 -0.841844,0.16156 -0.329867,-0.12658 -0.724781,-0.0279 -0.877587,0.2194 -0.15281,0.24725 -0.547724,0.34598 -0.877587,0.2194 -0.329868,-0.12658 -0.724782,-0.0279 -0.877588,0.21939 -0.152809,0.24725 -0.547724,0.34598 -0.877587,0.2194 -0.329867,-0.12658 -0.718652,-0.0378 -0.863976,0.19737 -0.145319,0.23513 -0.658932,0.32429 -1.141368,0.19813 -0.482432,-0.12616 -0.877148,-0.0274 -0.877148,0.21951 0,0.24689 -0.394915,0.34562 -0.877588,0.2194 -0.482673,-0.12622 -0.877587,-0.0275 -0.877587,0.2194 0,0.24689 -0.394914,0.34562 -0.877587,0.21939 -0.482673,-0.12622 -0.877588,-0.0275 -0.877588,0.2194 0,0.24689 -0.394914,0.34562 -0.877587,0.2194 -0.482673,-0.12623 -0.877587,-0.0275 -0.877587,0.21939 0,0.2469 -0.394915,0.34562 -0.877588,0.2194 -0.482673,-0.12622 -0.877587,-0.0275 -0.877587,0.2194 0,0.24689 -0.394914,0.34562 -0.877587,0.21939 -0.482673,-0.12622 -0.877587,-0.0275 -0.877587,0.2194 0,0.24689 -0.394915,0.34562 -0.877588,0.2194 -0.482673,-0.12623 -0.877587,-0.0275 -0.877587,0.21939 0,0.2469 -0.394914,0.34562 -0.877587,0.2194 -0.482673,-0.12622 -0.877588,-0.0275 -0.877588,0.2194 0,0.24689 -0.394914,0.34562 -0.877587,0.2194 -0.482673,-0.12623 -0.877587,-0.0275 -0.877587,0.21939 0,0.24689 -0.394915,0.34562 -0.877588,0.2194 -0.482673,-0.12622 -0.877587,-0.0275 -0.877587,0.2194 0,0.24689 -0.394914,0.34562 -0.877587,0.21939 -0.482673,-0.12622 -0.877588,-0.0275 -0.877588,0.2194 0,0.24689 -0.394914,0.34562 -0.877587,0.2194 -0.482673,-0.12623 -0.877587,-0.0275 -0.877587,0.21939 0,0.24689 -0.394914,0.34562 -0.877588,0.2194 -0.482673,-0.12622 -0.877587,-0.0275 -0.877587,0.2194 0,0.24689 -0.394914,0.34562 -0.877587,0.21939 -0.482673,-0.12622 -0.877587,-0.0275 -0.877587,0.2194 0,0.24689 -0.394915,0.34562 -0.877588,0.2194 -0.482673,-0.12623 -0.877587,-0.0275 -0.877587,0.21939 0,0.2469 -0.394914,0.34562 -0.877587,0.2194 -0.482673,-0.12622 -0.877588,-0.0152 -0.877588,0.2467 0,0.26192 -0.276212,0.37021 -0.613806,0.24066 -0.337595,-0.12954 -0.738832,-0.0332 -0.891638,0.21401 -0.15281,0.24725 -0.547724,0.34598 -0.877587,0.2194 -0.329868,-0.12658 -0.732101,-0.016 -0.893858,0.24572 -0.161752,0.26172 -0.477912,0.36226 -0.702574,0.22341 -0.224658,-0.13885 -0.655295,-0.0957 -0.956965,0.0958 -0.301671,0.19155 -0.647221,0.37308 -0.767889,0.40339 -0.120668,0.0303 -0.86524,0.20693 -1.654607,0.39249 -0.789366,0.18555 -1.531527,0.49322 -1.649247,0.68369 -0.160281,0.25934 11.831036,49.20802 14.748509,60.20355 0.46994,1.77114 0.692285,1.86065 3.035535,1.22204 z m 3.406821,-82.28236 c 12.968445,-3.2543 23.998586,-6.035275 24.511426,-6.179945 0.938636,-0.264781 1.345113,-2.144292 0.567654,-2.624785 -0.20063,-0.123998 -0.261214,-0.495336 -0.134631,-0.825199 0.126579,-0.329868 0.02785,-0.724782 -0.219397,-0.877588 -0.247251,-0.15281 -0.34598,-0.547724 -0.219396,-0.877587 0.126578,-0.329868 0.02785,-0.724782 -0.219397,-0.877587 -0.247252,-0.15281 -0.34598,-0.547725 -0.219397,-0.877588 0.126579,-0.329867 0.02785,-0.724781 -0.219397,-0.877587 -0.247251,-0.15281 -0.34598,-0.547724 -0.219397,-0.877587 0.126579,-0.329868 0.02785,-0.724782 -0.219397,-0.877588 -0.247251,-0.152809 -0.34598,-0.547724 -0.219396,-0.877587 0.126578,-0.329867 0.02785,-0.724782 -0.219397,-0.877587 -0.247252,-0.15281 -0.34598,-0.547724 -0.219397,-0.877588 0.126579,-0.329867 0.03777,-0.718651 -0.197369,-0.863975 -0.235132,-0.14532 -0.324291,-0.658933 -0.198133,-1.141369 0.126157,-0.482431 0.02738,-0.877148 -0.219511,-0.877148 -0.246892,0 -0.34562,-0.394914 -0.219397,-0.877587 0.126223,-0.482673 0.0275,-0.877588 -0.219397,-0.877588 -0.246892,0 -0.34562,-0.394914 -0.219397,-0.877587 0.126224,-0.482673 0.0275,-0.877587 -0.219397,-0.877587 -0.246891,0 -0.34562,-0.394915 -0.219396,-0.877588 0.126223,-0.482673 0.02749,-0.877587 -0.219397,-0.877587 -0.246892,0 -0.34562,-0.394914 -0.219397,-0.877587 0.126223,-0.482673 0.02749,-0.877588 -0.219397,-0.877588 -0.246891,0 -0.34562,-0.394914 -0.219397,-0.877587 0.126224,-0.482673 0.0275,-0.877587 -0.219397,-0.877587 -0.246891,0 -0.34562,-0.394914 -0.219396,-0.877587 0.126223,-0.482674 0.02749,-0.877588 -0.219397,-0.877588 -0.246892,0 -0.34562,-0.394914 -0.219397,-0.877587 0.126223,-0.482673 0.0275,-0.877587 -0.219397,-0.877587 -0.246891,0 -0.34562,-0.394915 -0.219397,-0.877588 0.133389,-0.510075 0.01346,-0.877587 -0.286374,-0.877587 -0.283724,0 -0.40412,-0.180809 -0.267541,-0.401795 0.339372,-0.549119 -1.149565,-6.618904 -1.623642,-6.618904 -0.208923,0 -0.264272,-0.187018 -0.123003,-0.415599 0.195786,-0.316787 -4.915919,-21.520989 -6.158763,-25.547562 -0.17155,-0.555787 -0.600361,-0.686106 -1.777289,-0.540131 -2.018842,0.2504 -42.147245,10.378477 -45.582438,11.504632 -2.604982,0.853985 -2.631751,0.879729 -2.536919,2.439618 0.09558,1.57211 14.358078,59.635063 14.840356,60.415403 0.139686,0.22602 0.442555,0.41094 0.673042,0.41094 0.230488,0 11.029615,-2.66261 23.998056,-5.91691 z M 129.88292,88.947252 c 22.05055,-5.546466 23.90353,-6.083646 23.77661,-6.892839 -0.0757,-0.482673 -0.13764,-1.219249 -0.13762,-1.636836 2e-5,-0.417587 -0.17624,-0.868188 -0.39168,-1.001336 -0.21544,-0.133152 -0.28815,-0.51198 -0.16156,-0.841843 0.12658,-0.329867 0.0279,-0.724782 -0.2194,-0.877587 -0.24725,-0.15281 -0.34598,-0.547724 -0.2194,-0.877588 0.12658,-0.329867 0.0279,-0.724781 -0.21939,-0.877587 -0.24725,-0.15281 -0.34598,-0.547724 -0.2194,-0.877587 0.12658,-0.329868 0.0279,-0.724782 -0.2194,-0.877588 -0.24725,-0.152809 -0.34598,-0.547724 -0.21939,-0.877587 0.12658,-0.329867 0.0279,-0.724782 -0.2194,-0.877587 -0.24725,-0.15281 -0.34598,-0.547724 -0.2194,-0.877587 0.12658,-0.329868 0.0378,-0.718652 -0.19737,-0.863976 -0.23513,-0.14532 -0.32429,-0.658932 -0.19813,-1.141368 0.12616,-0.482432 0.0274,-0.877149 -0.21951,-0.877149 -0.24689,0 -0.34562,-0.394914 -0.2194,-0.877587 0.12623,-0.482673 0.0275,-0.877588 -0.21939,-0.877588 -0.2469,0 -0.34562,-0.394914 -0.2194,-0.877587 0.12622,-0.482673 0.0275,-0.877587 -0.2194,-0.877587 -0.24689,0 -0.34562,-0.394915 -0.21939,-0.877588 0.12622,-0.482673 0.0275,-0.877587 -0.2194,-0.877587 -0.24689,0 -0.34562,-0.394914 -0.2194,-0.877587 0.12623,-0.482673 0.0275,-0.877587 -0.21939,-0.877587 -0.2469,0 -0.34562,-0.394915 -0.2194,-0.877588 0.12622,-0.482673 0.0275,-0.877587 -0.2194,-0.877587 -0.24689,0 -0.34562,-0.394914 -0.2194,-0.877587 0.12623,-0.482673 0.0275,-0.877588 -0.21939,-0.877588 -0.24689,0 -0.34562,-0.394914 -0.2194,-0.877587 0.12622,-0.482673 0.0275,-0.877587 -0.2194,-0.877587 -0.24689,0 -0.34562,-0.394915 -0.21939,-0.877588 0.12622,-0.482673 0.0275,-0.877587 -0.2194,-0.877587 -0.24689,0 -0.34562,-0.394914 -0.2194,-0.877587 0.12623,-0.482673 0.0275,-0.877588 -0.21939,-0.877588 -0.24689,0 -0.34562,-0.394914 -0.2194,-0.877587 0.13339,-0.510076 0.0135,-0.877587 -0.28637,-0.877587 -0.28373,0 -0.40485,-0.179634 -0.26916,-0.399184 0.34332,-0.555495 -0.69646,-4.86634 -1.17376,-4.86634 -0.21413,0 -0.27312,-0.188036 -0.13108,-0.417859 0.30014,-0.485635 -1.8369,-9.214785 -2.43126,-9.930945 -0.22019,-0.265313 -0.28356,-0.599175 -0.14082,-0.741915 0.14274,-0.142741 0.10403,-0.511135 -0.086,-0.818653 -0.19005,-0.307518 -0.38881,-0.962391 -0.44168,-1.455273 -0.13089,-1.220234 -1.43057,-6.181151 -1.93387,-7.381618 -0.22459,-0.535712 -0.62017,-1.813216 -0.87905,-2.838896 -0.34306,-1.359224 -0.69261,-1.864873 -1.28916,-1.864873 -0.81257,0 -45.01257,11.010484 -47.743929,11.893297 -1.145392,0.370205 -1.3855,0.64842 -1.220492,1.414185 0.976365,4.531128 13.636471,54.87318 14.502291,57.667392 0.96695,3.120577 1.25565,3.617542 2.09241,3.601886 0.53388,-0.01 11.7321,-2.725027 24.88494,-6.033413 z"
     id="path7"
     transform="scale(0.26458334)" />
</svg>
